<svg viewBox="0 0 158 35" style="fill:#fff" xmlns="http://www.w3.org/2000/svg"><g clip-path="url(#clip0_124_998)"><path d="M108.497 26.6736C108.173 26.6736 107.9 26.5628 107.679 26.3412C107.473 26.1197 107.37 25.8464 107.37 25.5214C107.37 25.1964 107.473 24.9305 107.679 24.7237C107.9 24.5021 108.173 24.3913 108.497 24.3913C108.806 24.3913 109.064 24.5021 109.27 24.7237C109.492 24.9305 109.602 25.1964 109.602 25.5214C109.602 25.8464 109.492 26.1197 109.27 26.3412C109.064 26.5628 108.806 26.6736 108.497 26.6736Z"></path><path d="M111.097 20.5135C111.097 19.2578 111.348 18.1647 111.849 17.234C112.35 16.2885 113.042 15.5647 113.926 15.0624C114.81 14.5454 115.82 14.2869 116.954 14.2869C118.443 14.2869 119.666 14.6562 120.624 15.3948C121.596 16.1334 122.222 17.138 122.502 18.4084H120.845C120.638 17.5368 120.189 16.8573 119.496 16.3698C118.818 15.8675 117.971 15.6164 116.954 15.6164C116.144 15.6164 115.415 15.8011 114.766 16.1704C114.118 16.5397 113.602 17.0937 113.219 17.8323C112.851 18.5561 112.666 19.4499 112.666 20.5135C112.666 21.5771 112.851 22.4782 113.219 23.2169C113.602 23.9555 114.118 24.5095 114.766 24.8788C115.415 25.2481 116.144 25.4327 116.954 25.4327C117.971 25.4327 118.818 25.189 119.496 24.7015C120.189 24.1992 120.638 23.5049 120.845 22.6186H122.502C122.222 23.8595 121.596 24.8566 120.624 25.61C119.651 26.3634 118.428 26.7401 116.954 26.7401C115.82 26.7401 114.81 26.489 113.926 25.9867C113.042 25.4697 112.35 24.7458 111.849 23.8151C111.348 22.8697 111.097 21.7692 111.097 20.5135Z"></path><path d="M130.2 26.7401C129.066 26.7401 128.042 26.489 127.128 25.9867C126.229 25.4697 125.515 24.7458 124.984 23.8151C124.468 22.8697 124.21 21.7692 124.21 20.5135C124.21 19.2578 124.476 18.1647 125.006 17.234C125.537 16.2885 126.259 15.5647 127.172 15.0624C128.086 14.5454 129.11 14.2869 130.245 14.2869C131.379 14.2869 132.403 14.5454 133.317 15.0624C134.245 15.5647 134.967 16.2885 135.483 17.234C136.014 18.1647 136.279 19.2578 136.279 20.5135C136.279 21.7544 136.014 22.8475 135.483 23.793C134.953 24.7384 134.223 25.4697 133.295 25.9867C132.367 26.489 131.335 26.7401 130.2 26.7401ZM130.2 25.3884C130.996 25.3884 131.733 25.2112 132.411 24.8566C133.089 24.4873 133.634 23.9407 134.046 23.2169C134.474 22.4782 134.687 21.5771 134.687 20.5135C134.687 19.4499 134.481 18.5561 134.068 17.8323C133.656 17.0937 133.111 16.5471 132.433 16.1925C131.755 15.8232 131.018 15.6386 130.223 15.6386C129.427 15.6386 128.69 15.8232 128.012 16.1925C127.334 16.5471 126.789 17.0937 126.377 17.8323C125.979 18.5561 125.78 19.4499 125.78 20.5135C125.78 21.5771 125.979 22.4782 126.377 23.2169C126.789 23.9407 127.327 24.4873 127.99 24.8566C128.668 25.2112 129.405 25.3884 130.2 25.3884Z"></path><path d="M153.024 14.2426C154.439 14.2426 155.588 14.6931 156.472 15.5942C157.371 16.4806 157.821 17.7732 157.821 19.472V26.5628H156.295V19.6493C156.295 18.3345 155.979 17.33 155.345 16.6357C154.711 15.9414 153.849 15.5942 152.759 15.5942C151.624 15.5942 150.718 15.9709 150.04 16.7243C149.362 17.4777 149.024 18.5709 149.024 20.0038V26.5628H147.498V19.6493C147.498 18.3345 147.182 17.33 146.548 16.6357C145.914 15.9414 145.045 15.5942 143.94 15.5942C142.805 15.5942 141.899 15.9709 141.221 16.7243C140.543 17.4777 140.204 18.5709 140.204 20.0038V26.5628H138.657V14.4641H140.204V16.5471C140.587 15.7937 141.133 15.2249 141.84 14.8408C142.547 14.442 143.336 14.2426 144.205 14.2426C145.251 14.2426 146.165 14.4937 146.946 14.996C147.742 15.4982 148.316 16.2368 148.67 17.2118C148.994 16.2516 149.547 15.5204 150.328 15.0181C151.123 14.5011 152.022 14.2426 153.024 14.2426Z"></path><path d="M27.6289 2.84935C27.6289 4.27711 26.4744 5.43454 25.0502 5.43454C23.626 5.43454 22.4715 4.27711 22.4715 2.84935C22.4715 1.42159 23.626 0.26416 25.0502 0.26416C26.4744 0.26416 27.6289 1.42159 27.6289 2.84935Z"></path><path d="M57.8365 2.84935C57.8365 4.27711 56.682 5.43454 55.2578 5.43454C53.8337 5.43454 52.6791 4.27711 52.6791 2.84935C52.6791 1.42159 53.8337 0.26416 55.2578 0.26416C56.682 0.26416 57.8365 1.42159 57.8365 2.84935Z"></path><path d="M47.8164 12.156C46.9692 10.7157 45.8272 9.60778 44.3536 8.79529C42.9169 8.01973 41.3329 7.65042 39.5278 7.65042C37.7595 7.65042 36.1755 8.01973 34.7388 8.79529C33.3389 9.60778 32.1969 10.7157 31.3864 12.156C30.6128 13.5964 30.2076 15.2583 30.2076 17.1418C30.2076 19.0253 30.6128 20.6872 31.4233 22.1275C32.2706 23.5678 33.4126 24.6757 34.8493 25.4513C36.286 26.2638 37.2806 26.4854 39.0489 26.4854C40.8171 26.4854 43.1011 25.4882 44.3168 23.6417V27.9626C44.3168 28.7751 43.6537 29.4399 42.8432 29.4399H34.8493V33.8716H44.6852C47.1165 33.8716 49.1058 31.8774 49.1058 29.4399V17.1418C49.1058 15.2583 48.6637 13.5964 47.8164 12.156ZM42.9538 21.1673C42.0328 22.1275 40.9276 22.6076 39.6014 22.6076C38.2753 22.6076 37.1701 22.1275 36.2491 21.1673C35.365 20.244 34.923 18.8775 34.923 17.1418C34.923 15.406 35.365 14.0395 36.2123 13.0793C37.0964 12.156 38.2016 11.6759 39.5278 11.6759C40.3751 11.6759 41.1487 11.8606 41.8854 12.2668C42.6222 12.6731 43.2485 13.3009 43.6905 14.1134C44.1326 14.9259 44.3536 15.923 44.3536 17.1048C44.3168 18.9145 43.8747 20.244 42.9538 21.1673Z"></path><path d="M27.2967 7.90898V26.3229H22.655V7.90898H27.2967Z"></path><path d="M57.6682 7.90898V26.3229H53.0265V7.90898H57.6682Z"></path><path d="M66.9953 11.7314V20.6392C66.9953 21.2596 67.1389 21.7139 67.4263 22.002C67.7357 22.2679 68.2441 22.4008 68.9514 22.4008H71.1064V26.3229H68.1888C64.2766 26.3229 62.3204 24.4173 62.3204 20.606V11.7314H60.1322V7.90898H62.3204V3.35535H66.9953V7.90898H71.1064V11.7314H66.9953Z"></path><path d="M82.2179 7.90898V12.5291H79.8971C79.0833 12.5291 78.4235 13.1905 78.4235 14.0063V26.3229H73.7819V10.8635C73.7819 9.23176 75.1013 7.90898 76.729 7.90898H82.2179Z"></path><path d="M83.4876 17.0495C83.4876 15.1881 83.8523 13.5373 84.5817 12.097C85.3332 10.6567 86.3389 9.54873 87.5988 8.77318C88.8808 7.99762 90.3064 7.60984 91.8757 7.60984C93.2461 7.60984 94.4397 7.88682 95.4565 8.44079C96.4953 8.99476 97.3242 9.69276 97.9431 10.5348V7.90898H102.618V26.3229H97.9431V23.6306C97.3463 24.4948 96.5174 25.215 95.4565 25.7911C94.4176 26.3451 93.213 26.6221 91.8426 26.6221C90.2954 26.6221 88.8808 26.2232 87.5988 25.4255C86.3389 24.6278 85.3332 23.5088 84.5817 22.0684C83.8523 20.606 83.4876 18.933 83.4876 17.0495ZM97.9431 17.116C97.9431 15.9859 97.722 15.022 97.28 14.2242C96.8379 13.4044 96.2411 12.7839 95.4896 12.3629C94.7381 11.9197 93.9314 11.6981 93.0693 11.6981C92.2073 11.6981 91.4116 11.9086 90.6822 12.3297C89.9528 12.7507 89.356 13.3711 88.8918 14.191C88.4498 14.9887 88.2287 15.9415 88.2287 17.0495C88.2287 18.1574 88.4498 19.1324 88.8918 19.9744C89.356 20.7943 89.9528 21.4258 90.6822 21.869C91.4337 22.3122 92.2294 22.5338 93.0693 22.5338C93.9314 22.5338 94.7381 22.3233 95.4896 21.9023C96.2411 21.4591 96.8379 20.8386 97.28 20.0409C97.722 19.221 97.9431 18.2461 97.9431 17.116Z"></path><path d="M14.1092 1.3721V10.4572C13.2619 8.97995 11.2358 7.83508 8.65706 7.83508C7.36771 7.83508 6.07836 8.05666 4.64166 8.83222C3.20495 9.60778 2.06296 10.7157 1.21567 12.156C0.405224 13.5964 0 15.2583 0 17.1418C0 19.0253 0.405224 20.6872 1.17883 22.1275C1.98928 23.5678 3.09444 24.6758 4.53114 25.4882C5.93101 26.2638 7.5519 26.6331 9.32015 26.6331C11.1252 26.6331 12.7093 26.2638 14.146 25.4882C15.6195 24.6758 16.7615 23.5678 17.6088 22.1275C18.4561 20.6872 18.8982 19.0253 18.8982 17.1418V1.3721H14.1092ZM13.4461 20.1332C13.004 20.9457 12.4146 21.5735 11.641 21.9798C10.9042 22.386 10.1306 22.5707 9.28332 22.5707C7.95713 22.5707 6.85197 22.0906 5.96785 21.1673C5.12056 20.2071 4.6785 18.8775 4.6785 17.1048C4.6785 15.3321 5.12056 14.0026 6.00468 13.0793C6.92565 12.1191 8.0308 11.639 9.35699 11.639C10.6832 11.639 11.7883 12.1191 12.7093 13.0793C13.6303 14.0026 14.1092 15.3691 14.1092 17.1048C14.1092 18.3236 13.8881 19.3207 13.4461 20.1332Z"></path></g><defs><clipPath id="clip0_124_998"><rect width="158" height="34" fill="white" transform="translate(0 0.0495605)"></rect></clipPath></defs></svg>